<?xml version="1.0" encoding="UTF-8"?>
<svg id="Layer_01" xmlns="http://www.w3.org/2000/svg" version="1.1" viewBox="0 0 257.4 48.6">
  <!-- Generator: Adobe Illustrator 29.0.1, SVG Export Plug-In . SVG Version: 2.1.0 Build 192)  -->
  <defs>
    <style>
      .st0 {
        fill: #ccaa7a;
      }
    </style>
  </defs>
  <g>
    <path d="M86.6-85.9v3h-21c-1.8,0-3.4-.6-4.8-1.6l-13.1-10.1c-.9-.7-1.9-1-3-1h-22.1l3-3h19.1c1.8,0,3.4.6,4.8,1.6l13.1,10.1c.9.7,1.9,1,3,1,0,0,21,0,21,0Z"/>
    <path d="M46.9-111.5v3h-28.6c-2.7,0-4.9,2.2-4.9,4.9s2.2,4.9,4.9,4.9h3l-3,3c-2.1,0-4.1-.8-5.6-2.3s-2.3-3.5-2.3-5.6.8-4.1,2.3-5.6c1.5-1.5,3.5-2.3,5.6-2.3h28.6Z"/>
    <path d="M50-89.2l2.4,1.8-2.1,2.1c-1.5,1.5-3.5,2.3-5.6,2.3H10.5l3-3h31.2c1.3,0,2.6-.5,3.5-1.4,0,0,1.8-1.8,1.8-1.8Z"/>
    <path d="M128.4-111.5v23.4c0,2.1-1.3,4-3.2,4.8-1.9.8-4.2.4-5.7-1.1l-23.4-23.4c-.6-.6-1.6-.8-2.4-.5-.8.4-1.4,1.2-1.4,2.1v9.9l-3-3v-7c0-2.1,1.3-4,3.2-4.8,1.9-.8,4.2-.4,5.7,1.1l23.4,23.4c.6.6,1.6.8,2.4.5.8-.3,1.4-1.2,1.4-2.1v-23.4h3Z"/>
    <polygon points="72.3 -111.5 100.9 -83 96.7 -83 72.3 -107.3 58.7 -93.7 56.3 -95.5 72.3 -111.5"/>
  </g>
  <g>
    <path class="st0" d="M247.9-96.4c1.5,1.5,2.3,3.5,2.3,5.6s-.8,4.1-2.3,5.6c-1.5,1.5-3.5,2.3-5.6,2.3h-20.7c-2.1,0-4.1-.8-5.6-2.3s-2.3-3.5-2.3-5.6v-12.8c0-2.1.8-4.1,2.3-5.6,1.5-1.5,3.5-2.3,5.6-2.3h17.3l-3,3h-14.3c-2.7,0-4.9,2.2-4.9,4.9v12.8c0,2.7,2.2,4.9,4.9,4.9h20.7c2.7,0,4.9-2.2,4.9-4.9s-.8-3-1.9-3.9c-.1-.1-.3-.2-.4-.3-.2-.1-.3-.2-.5-.3,0,0-.1,0-.1,0-.1,0-.3-.1-.4-.2-.1,0-.2,0-.4,0,0,0-.2,0-.2,0-.3,0-.6,0-.9,0h-16.5l3-3h13.5c.2,0,.5,0,.7,0,.1,0,.3,0,.4,0,0,0,.1,0,.2,0,.1,0,.3,0,.4,0,.1,0,.2,0,.3,0,0,0,.2,0,.3,0,.1,0,.3,0,.4.1.1,0,.2,0,.3.1.5.2,1,.5,1.4.8.4.2.7.5,1,.9h0Z"/>
    <path class="st0" d="M210.8-106.3v18.2c0,2.8-2.3,5.2-5.1,5.2h-28.8c-2.8,0-5.1-2.4-5.1-5.2v-6.3l3,3v3.3c0,1.2,1,2.2,2.2,2.2h28.8c1.2,0,2.2-1,2.2-2.2v-18.2c0-.6-.3-1.3-.8-1.7-.4-.4-.9-.5-1.4-.6h-28.7c-.5,0-1,.2-1.4.6-.5.4-.8,1-.8,1.7v10l-3-3v-7c0-1.5.7-2.9,1.8-3.9.9-.8,2.1-1.2,3.3-1.3h28.8c1.2,0,2.4.5,3.3,1.3,1.1,1,1.8,2.4,1.8,3.9Z"/>
    <path class="st0" d="M192-105.5v8.7l-6.4,4.1c-.4.2-.8.1-1-.2-.2-.3-.1-.8.2-1,1.9-1.2,3.8-2.4,5.7-3.6v-7.9c0-.4.3-.8.8-.8s.7.3.7.7Z"/>
    <path class="st0" d="M170.4-83h-33.9c-2.8,0-5.1-2.4-5.1-5.2v-23.4h3v23.4c0,1.2,1,2.2,2.2,2.2h30.9l3,3h0Z"/>
  </g>
  <g>
    <path d="M127,41.8h-6.2V12.5h-11.1v-5.7h28.4v5.7h-11.1v29.3Z"/>
    <path d="M189,26.6c0,10.5-5.9,15.7-15.1,15.7s-14.9-5.2-14.9-15.4V6.8h6.2v19.9c0,6.5,3.4,10,8.9,10s8.8-3.3,8.8-9.8V6.8h6.2v19.9Z"/>
    <path d="M229.7,33.2h-.2l-11-16.4v25h-6.1V6.8h6.6l10.7,16.6,10.7-16.6h6.6v35h-6.2v-25.1l-11.1,16.5Z"/>
    <path d="M23.6,6.8h-13.1v5.6h13.1c7.4,0,12.2,5,12.2,12s-4.8,11.9-12.2,11.9h-6.9v-15.3l-6.2-4v24.9h13.1c11,0,18.6-7.7,18.6-17.6S34.6,6.8,23.6,6.8Z"/>
    <polygon points="80.3 6.5 74.6 6.5 59.2 41.8 65.5 41.8 69.1 33.3 71.4 27.9 77.4 13.9 83.4 27.9 85.7 33.3 89.2 41.8 95.7 41.8 80.3 6.5"/>
  </g>
</svg>